<?xml version="1.0" encoding="UTF-8" standalone="no"?>
<svg
   xmlns:dc="http://purl.org/dc/elements/1.1/"
   xmlns:cc="http://creativecommons.org/ns#"
   xmlns:rdf="http://www.w3.org/1999/02/22-rdf-syntax-ns#"
   xmlns:svg="http://www.w3.org/2000/svg"
   xmlns="http://www.w3.org/2000/svg"
   xmlns:sodipodi="http://sodipodi.sourceforge.net/DTD/sodipodi-0.dtd"
   xmlns:inkscape="http://www.inkscape.org/namespaces/inkscape"
   width="13.8mm"
   height="9.75mm"
   viewBox="0 0 13.8 9.75"
   version="1.1"
   id="svg946"
   inkscape:version="1.0beta1 (32d4812, 2019-09-19)"
   sodipodi:docname="vuelitaire.svg">
  <defs
     id="defs940" />
  <sodipodi:namedview
     id="base"
     pagecolor="#ffffff"
     bordercolor="#666666"
     borderopacity="1.0"
     inkscape:pageopacity="0.0"
     inkscape:pageshadow="2"
     inkscape:zoom="4"
     inkscape:cx="38"
     inkscape:cy="21.25"
     inkscape:document-units="mm"
     inkscape:current-layer="layer1"
     inkscape:document-rotation="0"
     showgrid="false"
     inkscape:window-width="1440"
     inkscape:window-height="775"
     inkscape:window-x="0"
     inkscape:window-y="23"
     inkscape:window-maximized="0" />
  <metadata
     id="metadata943">
    <rdf:RDF>
      <cc:Work
         rdf:about="">
        <dc:format>image/svg+xml</dc:format>
        <dc:type
           rdf:resource="http://purl.org/dc/dcmitype/StillImage" />
        <dc:title></dc:title>
      </cc:Work>
    </rdf:RDF>
  </metadata>
  <g
     inkscape:label="Layer 1"
     inkscape:groupmode="layer"
     id="layer1">
    <g
       transform="matrix(0.9726061,0,0,0.9726061,-1.4294486,-2.9771646)"
       id="g1612">
      <g
         id="g1601">
        <g
           transform="rotate(15,-0.74139407,32.984941)"
           id="g1537">
          <rect
             y="1.9225644"
             x="2.0768857"
             height="8.1269112"
             width="5.7980189"
             rx="0.61719817"
             ry="0.64883024"
             id="rect136-72-9"
             style="fill:#c9ac89;fill-opacity:1" />
          <g
             style="font-style:normal;font-weight:normal;font-size:4.25742px;line-height:1.25;font-family:sans-serif;fill:#8e1721;fill-opacity:1"
             id="text1311"
             aria-label="♥">
            <path
               inkscape:connector-curvature="0"
               id="path1569"
               style="font-style:normal;font-variant:normal;font-weight:normal;font-stretch:normal;font-family:'Helvetica Neue';-inkscape-font-specification:'Helvetica Neue';fill:#8e1721;fill-opacity:1"
               d="M 4.9699416,7.3846819 Q 4.9054982,7.1393813 4.7849267,6.925263 4.6664341,6.7090659 4.323429,6.2558835 4.071892,5.9232725 4.0136851,5.8338834 3.9180594,5.6883661 3.8744043,5.5677946 3.8328279,5.4451443 3.8328279,5.3204152 q 0,-0.2307488 0.1538326,-0.3866602 0.1538325,-0.1559114 0.3804237,-0.1559114 0.22867,0 0.3970543,0.1621478 0.126808,0.1205715 0.2058031,0.3596356 0.068601,-0.2349065 0.1933301,-0.3575567 0.1725419,-0.1663055 0.3991331,-0.1663055 0.2245124,0 0.3804238,0.1559114 0.1559113,0.1538325 0.1559113,0.3679508 0,0.1870937 -0.091468,0.3908179 Q 5.9158039,5.8920903 5.6538728,6.2205436 5.3129466,6.650859 5.1570352,6.9273418 5.0343849,7.1456178 4.9699416,7.3846819 Z" />
          </g>
          <g
             style="font-style:normal;font-weight:normal;font-size:1.54632px;line-height:1.25;font-family:sans-serif;fill:#8e1721;fill-opacity:1"
             id="text1311-0"
             aria-label="♥">
            <path
               inkscape:connector-curvature="0"
               id="path1572"
               style="font-style:normal;font-variant:normal;font-weight:normal;font-stretch:normal;font-family:'Helvetica Neue';-inkscape-font-specification:'Helvetica Neue';fill:#8e1721;fill-opacity:1"
               d="M 3.0642101,3.6118681 Q 3.0408039,3.5227735 2.9970116,3.4450044 2.9539744,3.3664804 2.8293929,3.2018819 2.7380332,3.0810756 2.7168921,3.0486089 2.6821603,2.9957562 2.6663045,2.951964 2.6512035,2.907417 2.6512035,2.862114 q 0,-0.083809 0.055873,-0.1404373 0.055873,-0.056628 0.1381722,-0.056628 0.083054,0 0.1442124,0.058893 0.046057,0.043792 0.074749,0.1306217 0.024916,-0.085319 0.070219,-0.1298667 0.062668,-0.060403 0.1449675,-0.060403 0.081544,0 0.1381722,0.056628 0.056628,0.055873 0.056628,0.1336419 0,0.067953 -0.033222,0.1419474 Q 3.4077528,3.06975 3.3126179,3.1890462 3.1887915,3.3453393 3.1321636,3.4457595 3.0876163,3.5250386 3.0642101,3.6118681 Z" />
          </g>
          <g
             style="font-style:normal;font-weight:normal;font-size:1.54632px;line-height:1.25;font-family:sans-serif;fill:#8e1721;fill-opacity:1"
             id="text1311-0-1"
             transform="scale(1,-1)"
             aria-label="♥">
            <path
               inkscape:connector-curvature="0"
               id="path1566"
               style="font-style:normal;font-variant:normal;font-weight:normal;font-stretch:normal;font-family:'Helvetica Neue';-inkscape-font-specification:'Helvetica Neue';fill:#8e1721;fill-opacity:1"
               d="m 6.9237482,-8.4789742 q -0.023406,-0.089095 -0.067198,-0.1668636 -0.043037,-0.078524 -0.1676187,-0.2431226 -0.09136,-0.1208062 -0.1125008,-0.1532729 -0.034732,-0.052853 -0.050588,-0.096645 -0.015101,-0.044547 -0.015101,-0.08985 0,-0.083809 0.055873,-0.1404373 0.055873,-0.056628 0.1381721,-0.056628 0.083054,0 0.1442125,0.058893 0.046057,0.043792 0.074749,0.1306218 0.024916,-0.085319 0.070219,-0.1298667 0.062668,-0.060403 0.1449675,-0.060403 0.081544,0 0.1381721,0.056628 0.056628,0.055873 0.056628,0.1336419 0,0.067953 -0.033222,0.1419473 -0.033222,0.073239 -0.1283566,0.192535 -0.1238264,0.156293 -0.1804543,0.2567132 -0.044547,0.079279 -0.067954,0.1661089 z" />
          </g>
        </g>
      </g>
    </g>
    <g
       transform="matrix(0.93946535,-0.25172898,0.25172898,0.93946535,-9.9282135,1.8604131)"
       id="g1546">
      <g
         id="g1591">
        <rect
           y="2.8895483"
           x="9.8686743"
           height="8.1269112"
           width="5.7980189"
           rx="0.61719817"
           ry="0.64883024"
           id="rect136-72-9-8"
           style="fill:#c9ac89;fill-opacity:1" />
        <g
           aria-label="♦"
           id="text1311-3"
           style="font-style:normal;font-weight:normal;font-size:4.25741px;line-height:1.25;font-family:sans-serif;fill:#8e1721;fill-opacity:1">
          <path
             inkscape:connector-curvature="0"
             d="m 12.792072,5.650458 q 0.185014,0.3139008 0.45526,0.6735356 0.311822,0.4157627 0.503073,0.6298805 -0.153832,0.1621474 -0.503073,0.6278016 -0.282719,0.3783441 -0.453181,0.6776932 -0.05613,-0.1080983 -0.153832,-0.2515364 -0.168384,-0.2494576 -0.417842,-0.579989 -0.05405,-0.072758 -0.380423,-0.4739694 0.20996,-0.2390636 0.540492,-0.6818509 0.2453,-0.3284525 0.409526,-0.6215652 z"
             style="font-style:normal;font-variant:normal;font-weight:normal;font-stretch:normal;font-family:'Helvetica Neue';-inkscape-font-specification:'Helvetica Neue';fill:#8e1721;fill-opacity:1"
             id="path1575" />
        </g>
        <g
           aria-label="♦"
           id="text1311-0-12"
           style="font-style:normal;font-weight:normal;font-size:1.54632px;line-height:1.25;font-family:sans-serif;fill:#8e1721;fill-opacity:1">
          <path
             inkscape:connector-curvature="0"
             d="m 10.7888,3.6312779 q 0.0672,0.1140109 0.165354,0.2446326 0.113256,0.1510078 0.182719,0.2287769 -0.05587,0.058893 -0.182719,0.2280217 -0.102686,0.1374171 -0.164599,0.2461428 -0.02039,-0.039262 -0.05587,-0.09136 -0.06116,-0.090605 -0.151763,-0.2106558 -0.01963,-0.026426 -0.138172,-0.1721489 0.07626,-0.08683 0.19631,-0.2476529 0.08909,-0.1192961 0.148743,-0.2257566 z"
             style="font-style:normal;font-variant:normal;font-weight:normal;font-stretch:normal;font-family:'Helvetica Neue';-inkscape-font-specification:'Helvetica Neue';fill:#8e1721;fill-opacity:1"
             id="path1578" />
        </g>
        <g
           aria-label="♦"
           transform="scale(1,-1)"
           id="text1311-0-1-6"
           style="font-style:normal;font-weight:normal;font-size:1.54632px;line-height:1.25;font-family:sans-serif;fill:#8e1721;fill-opacity:1">
          <path
             inkscape:connector-curvature="0"
             d="m 14.648338,-10.393532 q 0.0672,0.114011 0.165354,0.244633 0.113256,0.1510075 0.182719,0.2287765 -0.05587,0.058893 -0.182719,0.2280218 -0.102685,0.1374171 -0.164599,0.2461427 -0.02039,-0.039262 -0.05587,-0.09136 -0.06116,-0.090605 -0.151762,-0.2106559 -0.01963,-0.026426 -0.138173,-0.1721489 0.07626,-0.08683 0.196311,-0.2476522 0.08909,-0.119296 0.148742,-0.225757 z"
             style="font-style:normal;font-variant:normal;font-weight:normal;font-stretch:normal;font-family:'Helvetica Neue';-inkscape-font-specification:'Helvetica Neue';fill:#8e1721;fill-opacity:1"
             id="path1581" />
        </g>
      </g>
    </g>
    <g
       transform="matrix(1.0399984,0,0,1.0399984,-10.320626,-9.5428833)"
       id="g1528">
      <g
         transform="translate(7.752907,-0.70760659)"
         id="g1564">
        <rect
           style="fill:#f3dfc2;fill-opacity:1"
           id="rect136-72-9-8-5"
           ry="0.60678583"
           rx="0.57720351"
           width="5.7980189"
           height="8.1269112"
           x="5.9922214"
           y="9.9963799" />
        <g
           aria-label="♠"
           id="text1311-3-9"
           style="font-style:normal;font-weight:normal;font-size:4.25741px;line-height:1.25;font-family:sans-serif;fill:#19202a;fill-opacity:1">
          <path
             d="m 8.9655106,12.75729 q 0.054049,0.224511 0.166305,0.401211 0.112256,0.176699 0.3991322,0.438629 0.2889551,0.259852 0.3658712,0.399132 0.076916,0.139281 0.076916,0.282719 0,0.199566 -0.1330441,0.33261 -0.133044,0.133044 -0.3242949,0.133044 -0.1621474,0 -0.2951915,-0.09978 -0.1309652,-0.101862 -0.2328271,-0.295191 0.00208,0.305585 0.078995,0.486442 0.078995,0.178778 0.2494576,0.282719 0.1725416,0.101862 0.457339,0.120571 l 0.014552,0.07692 H 8.1402216 l 0.01663,-0.07692 q 0.3825017,0 0.5924619,-0.222433 0.2120389,-0.224512 0.2037237,-0.667299 -0.093547,0.197487 -0.2328271,0.29727 -0.1372017,0.0977 -0.3118221,0.0977 -0.1870932,0 -0.3222161,-0.135123 -0.133044,-0.135122 -0.133044,-0.324295 0,-0.151753 0.068601,-0.274403 0.093547,-0.170463 0.3035068,-0.343004 0.2099602,-0.172542 0.3097432,-0.284798 0.1517534,-0.172541 0.2203542,-0.307664 0.07068,-0.135123 0.1101772,-0.318058 z"
             style="font-style:normal;font-variant:normal;font-weight:normal;font-stretch:normal;font-family:'Helvetica Neue';-inkscape-font-specification:'Helvetica Neue';fill:#19202a;fill-opacity:1"
             id="path881"
             inkscape:connector-curvature="0" />
        </g>
        <g
           aria-label="♠"
           id="text1311-0-12-0"
           style="font-style:normal;font-weight:normal;font-size:1.54632px;line-height:1.25;font-family:sans-serif;fill:#19202a;fill-opacity:1">
          <path
             d="m 6.9304682,10.738108 q 0.019631,0.08155 0.060403,0.145723 0.040772,0.06418 0.1449675,0.159313 0.1049504,0.09438 0.1328869,0.144968 0.027936,0.05059 0.027936,0.102685 0,0.07248 -0.048322,0.120806 -0.048323,0.04832 -0.1177861,0.04832 -0.058893,0 -0.1072155,-0.03624 -0.047567,-0.037 -0.084564,-0.107216 7.551e-4,0.110991 0.028691,0.17668 0.028691,0.06493 0.090605,0.102685 0.062668,0.037 0.1661086,0.04379 l 0.00529,0.02794 h -0.598746 l 0.00604,-0.02794 q 0.1389272,0 0.2151861,-0.08079 0.077014,-0.08154 0.073994,-0.242368 -0.033977,0.07173 -0.084564,0.107971 -0.049833,0.03549 -0.1132559,0.03549 -0.067954,0 -0.117031,-0.04908 -0.048323,-0.04908 -0.048323,-0.117786 0,-0.05512 0.024916,-0.09967 0.033977,-0.06191 0.1102357,-0.124581 0.076259,-0.06267 0.1125008,-0.103441 0.055118,-0.06267 0.080034,-0.111746 0.025671,-0.04908 0.040017,-0.115521 z"
             style="font-style:normal;font-variant:normal;font-weight:normal;font-stretch:normal;font-family:'Helvetica Neue';-inkscape-font-specification:'Helvetica Neue';fill:#19202a;fill-opacity:1"
             id="path878"
             inkscape:connector-curvature="0" />
        </g>
        <g
           aria-label="♠"
           transform="scale(1,-1)"
           id="text1311-0-1-6-8"
           style="font-style:normal;font-weight:normal;font-size:1.54632px;line-height:1.25;font-family:sans-serif;fill:#19202a;fill-opacity:1">
          <path
             d="m 10.790007,-17.500363 q 0.01963,0.08154 0.0604,0.145723 0.04077,0.06418 0.144967,0.159313 0.104951,0.09438 0.132887,0.144968 0.02794,0.05059 0.02794,0.102685 0,0.07248 -0.04832,0.120806 -0.04832,0.04832 -0.117786,0.04832 -0.05889,0 -0.107215,-0.03624 -0.04757,-0.037 -0.08457,-0.107216 7.55e-4,0.110991 0.02869,0.176679 0.02869,0.06493 0.0906,0.102686 0.06267,0.037 0.166109,0.04379 l 0.0053,0.02794 h -0.598746 l 0.006,-0.02794 q 0.138927,0 0.215186,-0.08079 0.07701,-0.08154 0.07399,-0.242368 -0.03398,0.07173 -0.08456,0.107971 -0.04983,0.03549 -0.113256,0.03549 -0.06795,0 -0.117031,-0.04908 -0.04832,-0.04908 -0.04832,-0.117786 0,-0.05512 0.02492,-0.09966 0.03398,-0.06191 0.110236,-0.124581 0.07626,-0.06267 0.112501,-0.103441 0.05512,-0.06267 0.08003,-0.111746 0.02567,-0.04908 0.04002,-0.115521 z"
             style="font-style:normal;font-variant:normal;font-weight:normal;font-stretch:normal;font-family:'Helvetica Neue';-inkscape-font-specification:'Helvetica Neue';fill:#19202a;fill-opacity:1"
             id="path884"
             inkscape:connector-curvature="0" />
        </g>
      </g>
    </g>
  </g>
</svg>
